<svg viewBox="0 0 5021 1976" fill="none" xmlns="http://www.w3.org/2000/svg">
    <path fill-rule="evenodd" clip-rule="evenodd" d="M97.1 498.2C34.5 799.1 105.3 1033.6 442 1050L827.8 2.69995C507.3 30 234.1 224.5 97.1 498.2Z" fill="url(#paint0_linear_0_3)"/>
    <path fill-rule="evenodd" clip-rule="evenodd" d="M1396.9 146.4L924 794.5H1417.8C1639.3 771.8 1826.3 971.8 1662 1396.3C1753.7 1254.5 1807.2 1085.4 1807.2 904.5C1807.2 587.2 1643.8 308.2 1396.9 146.4ZM438.4 1679.9L818.7 1049.9H442C105.2 1033.6 34.4 799 97.1 498.2C35.4 620 0.900006 758.2 0.900006 904.5C0.800006 1233.6 176 1520.8 438.4 1679.9Z" fill="#FE8C00"/>
    <path fill-rule="evenodd" clip-rule="evenodd" d="M1417.8 794.5L511 1719C629.9 1776.3 763.3 1809 904 1809C1221.7 1809 1501.3 1644.5 1661.9 1396.3C1826.2 971.8 1639.2 771.8 1417.8 794.5Z" fill="url(#paint1_linear_0_3)"/>
    <path fill-rule="evenodd" clip-rule="evenodd" d="M438.4 1679.9L259.6 1975.3L511 1719L1417.8 794.5H924L1396.9 146.4C1255.3 53.6 1085.5 0 904 0C878.6 0 853.2 0.9 827.8 2.7L442 1049.9H818.7L438.4 1679.9Z" fill="url(#paint2_linear_0_3)"/>
    <path fill-rule="evenodd" clip-rule="evenodd" d="M869.5 0.900024C855.9 0.900024 841.4 1.80002 827.7 2.70002L442 1049.9L869.5 0.900024ZM363.9 1869L818.7 1049.9L717 1219L525.5 1534.5L438.4 1679.9L259.5 1975.3L363.9 1869Z" fill="#CCCCCC"/>
    <path d="M2241 1223.4C2200.9 1136.6 2162.2 1045.8 2125 951C2087.8 856.2 2053.2 761.4 2021 666.5H2132.6C2145.5 704 2158.6 742.3 2172 781.4C2185.4 820.5 2198.8 858.9 2212.2 896.7C2225.6 934.5 2239 971 2252.4 1006.4C2265.8 1041.8 2278.9 1074.2 2291.8 1103.6C2304.1 1074.1 2317 1041.9 2330.4 1006.8C2343.8 971.7 2357.3 935.2 2371 897.1C2384.7 859.1 2398.2 820.5 2411.6 781.4C2425 742.3 2437.9 704 2450.2 666.5H2558.6C2525.9 761.3 2491 856.1 2453.9 951C2416.9 1045.8 2378.2 1136.6 2337.9 1223.4H2241ZM2992.7 1012.9C2992.7 1046.1 2987.9 1076.4 2978.3 1103.7C2968.7 1131 2955 1154.3 2937.4 1173.6C2919.8 1192.9 2898.5 1207.9 2873.6 1218.6C2848.7 1229.3 2821.3 1234.7 2791.4 1234.7C2761.4 1234.7 2734.2 1229.3 2709.6 1218.6C2685 1207.9 2663.9 1192.9 2646.2 1173.6C2628.5 1154.3 2614.8 1131 2604.9 1103.7C2595 1076.4 2590.1 1046.1 2590.1 1012.9C2590.1 979.7 2595 949.6 2604.9 922.5C2614.8 895.5 2628.7 872.3 2646.6 853C2664.5 833.7 2685.8 818.9 2710.4 808.4C2735 798 2762 792.7 2791.4 792.7C2820.8 792.7 2848 797.9 2872.8 808.4C2897.7 818.8 2918.9 833.7 2936.6 853C2954.3 872.3 2968 895.5 2977.9 922.5C2987.7 949.6 2992.7 979.7 2992.7 1012.9ZM2893.2 1012.9C2893.2 971.1 2884.2 938 2866.3 913.7C2848.4 889.3 2823.4 877.1 2791.3 877.1C2759.2 877.1 2734.2 889.3 2716.3 913.7C2698.4 938.1 2689.4 971.2 2689.4 1012.9C2689.4 1055.2 2698.4 1088.7 2716.3 1113.3C2734.2 1137.9 2759.2 1150.3 2791.3 1150.3C2823.4 1150.3 2848.4 1138 2866.3 1113.3C2884.2 1088.7 2893.2 1055.2 2893.2 1012.9ZM3259.1 1231.5C3230.2 1231 3206.3 1227.7 3187.3 1221.9C3168.3 1216 3153.2 1207.6 3142 1196.6C3130.8 1185.6 3122.9 1172 3118.3 1155.6C3113.8 1139.3 3111.5 1120.6 3111.5 1099.8V616.1L3208.6 600V1081.3C3208.6 1093.1 3209.5 1103 3211.4 1111C3213.3 1119 3216.6 1125.9 3221.4 1131.5C3226.2 1137.1 3232.8 1141.4 3241.1 1144.4C3249.4 1147.3 3260 1149.6 3272.8 1151.2L3259.1 1231.5ZM3366.6 692.3L3463.7 676.2V803.2H3612.9V884.4H3463.7V1055.5C3463.7 1089.2 3469 1113.4 3479.7 1127.8C3490.4 1142.3 3508.6 1149.5 3534.3 1149.5C3552 1149.5 3567.6 1147.6 3581.2 1143.9C3594.8 1140.2 3605.7 1136.7 3613.7 1133.5L3629.7 1210.6C3618.5 1215.4 3603.8 1220.4 3585.6 1225.5C3567.4 1230.6 3546 1233.1 3521.4 1233.1C3491.4 1233.1 3466.4 1229.1 3446.4 1221C3426.3 1213 3410.4 1201.3 3398.7 1186C3386.9 1170.7 3378.6 1152.3 3373.8 1130.6C3369 1108.9 3366.6 1084.1 3366.6 1056.3V692.3ZM3866.4 792.7C3898.5 792.7 3925.5 796.7 3947.4 804.8C3969.3 812.8 3986.8 824.1 4000 838.5C4013.1 853 4022.5 870.5 4028.1 891.1C4033.7 911.7 4036.5 934.4 4036.5 959V1213.7C4021.5 1216.9 3998.9 1220.8 3968.7 1225.3C3938.5 1229.8 3904.4 1232.1 3866.4 1232.1C3841.3 1232.1 3818.3 1229.7 3797.4 1224.9C3776.5 1220.1 3758.7 1212.3 3744 1201.6C3729.3 1190.9 3717.8 1177 3709.5 1159.8C3701.2 1142.7 3697.1 1121.5 3697.1 1096.3C3697.1 1072.2 3701.8 1051.8 3711.1 1035.2C3720.5 1018.6 3733.2 1005.1 3749.2 994.6C3765.2 984.2 3783.8 976.7 3805 972.1C3826.1 967.6 3848.2 965.3 3871.2 965.3C3881.9 965.3 3893.1 966 3904.9 967.3C3916.7 968.6 3929.2 970.9 3942.6 974.1V958C3942.6 946.7 3941.3 936 3938.6 925.9C3935.9 915.7 3931.2 906.8 3924.6 899C3917.9 891.2 3909.1 885.2 3898.1 880.9C3887.1 876.6 3873.3 874.5 3856.8 874.5C3834.3 874.5 3813.7 876.1 3795 879.3C3776.3 882.5 3761 886.3 3749.3 890.6L3737.3 811.9C3749.6 807.6 3767.5 803.3 3791.1 799C3814.5 794.9 3839.7 792.7 3866.4 792.7ZM3874.5 1155.1C3904.5 1155.1 3927.2 1153.5 3942.7 1150.3V1042.6C3937.3 1041 3929.6 1039.4 3919.4 1037.8C3909.2 1036.2 3898 1035.4 3885.7 1035.4C3875 1035.4 3864.2 1036.2 3853.2 1037.8C3842.2 1039.4 3832.3 1042.4 3823.5 1046.6C3814.7 1050.9 3807.6 1056.9 3802.2 1064.7C3796.8 1072.5 3794.2 1082.3 3794.2 1094C3794.2 1117 3801.4 1133 3815.9 1141.8C3830.3 1150.7 3849.8 1155.1 3874.5 1155.1ZM4521.9 1180.8C4521.9 1247.8 4504.9 1296.8 4471 1327.8C4437 1358.9 4385 1374.4 4314.9 1374.4C4289.2 1374.4 4264.2 1372.3 4239.9 1368C4215.6 1363.7 4193.5 1358.1 4173.7 1351.1L4191.4 1268.3C4208 1275.3 4226.8 1280.9 4248 1285.2C4269.1 1289.5 4292 1291.6 4316.6 1291.6C4355.6 1291.6 4383.5 1283.6 4400 1267.5C4416.6 1251.4 4424.9 1227.6 4424.9 1196V1179.9C4415.3 1184.7 4402.6 1189.5 4386.8 1194.4C4371 1199.2 4353 1201.6 4332.6 1201.6C4305.8 1201.6 4281.4 1197.3 4259.2 1188.7C4237 1180.1 4218 1167.5 4202.2 1150.9C4186.4 1134.3 4174.1 1113.5 4165.3 1088.6C4156.5 1063.7 4152.1 1034.9 4152.1 1002.2C4152.1 971.7 4156.8 943.5 4166.1 917.8C4175.5 892.1 4189.1 870.1 4207 851.9C4224.9 833.7 4246.7 819.5 4272.4 809.3C4298.1 799.1 4327.2 794 4359.9 794C4391.5 794 4421.4 796.4 4449.8 801.2C4478.1 806 4502.2 811.1 4522 816.5V1180.8H4521.9ZM4251.6 1002.5C4251.6 1043.8 4260.5 1073.9 4278.5 1092.9C4296.4 1111.9 4319.5 1121.4 4347.9 1121.4C4363.4 1121.4 4378 1119.3 4391.6 1115C4405.2 1110.7 4416.3 1105.6 4424.9 1099.7V881.9C4417.9 880.3 4409.4 878.8 4399.2 877.5C4389 876.2 4376.2 875.5 4360.7 875.5C4325.4 875.5 4298.4 887.2 4279.7 910.5C4260.9 933.8 4251.6 964.4 4251.6 1002.5ZM4642.3 1015.3C4642.3 978.3 4647.8 945.9 4658.8 918.1C4669.8 890.3 4684.3 867.1 4702.5 848.6C4720.7 830.1 4741.5 816.2 4765.1 806.8C4788.6 797.4 4812.7 792.7 4837.3 792.7C4895.1 792.7 4940.1 810.7 4972.5 846.5C5004.9 882.4 5021 936 5021 1007.2C5021 1012.6 5020.9 1018.6 5020.6 1025.3C5020.3 1032 5019.9 1038 5019.4 1043.4H4742.6C4745.3 1077.1 4757.2 1103.3 4778.3 1121.7C4799.4 1140.2 4830.1 1149.4 4870.2 1149.4C4893.7 1149.4 4915.3 1147.3 4934.8 1143C4954.3 1138.7 4969.7 1134.2 4980.9 1129.3L4993.7 1208.9C4988.3 1211.6 4981 1214.4 4971.6 1217.3C4962.2 1220.2 4951.5 1222.9 4939.5 1225.3C4927.5 1227.7 4914.5 1229.7 4900.6 1231.3C4886.7 1232.9 4872.5 1233.7 4858.1 1233.7C4821.2 1233.7 4789.1 1228.2 4761.8 1217.2C4734.5 1206.2 4712.1 1191 4694.4 1171.4C4676.8 1151.9 4663.6 1128.8 4655.1 1102.3C4646.6 1076 4642.3 1046.9 4642.3 1015.3ZM4923.9 971.9C4923.9 958.5 4922 945.8 4918.3 933.7C4914.6 921.6 4909.1 911.2 4901.9 902.4C4894.7 893.6 4885.9 886.6 4875.4 881.5C4865 876.4 4852.5 873.9 4838.1 873.9C4823.1 873.9 4810 876.7 4798.8 882.3C4787.6 887.9 4778.1 895.3 4770.3 904.4C4762.5 913.5 4756.5 924 4752.2 935.7C4747.9 947.5 4745 959.5 4743.4 971.9H4923.9Z" fill="#FE8C00"/>
    <defs>
        <linearGradient id="paint0_linear_0_3" x1="452.119" y1="2.72695" x2="452.119" y2="1049.94" gradientUnits="userSpaceOnUse">
            <stop offset="0.3" stop-color="#FE8C00"/>
            <stop offset="0.448" stop-color="#FE8800"/>
            <stop offset="0.6" stop-color="#FD7B00"/>
            <stop offset="0.755" stop-color="#FB6700"/>
            <stop offset="0.911" stop-color="#F94A00"/>
            <stop offset="1" stop-color="#F83600"/>
        </linearGradient>
        <linearGradient id="paint1_linear_0_3" x1="1117.7" y1="1808.99" x2="1117.7" y2="792.761" gradientUnits="userSpaceOnUse">
            <stop offset="0.3" stop-color="#FE8C00"/>
            <stop offset="0.448" stop-color="#FE8800"/>
            <stop offset="0.6" stop-color="#FD7B00"/>
            <stop offset="0.755" stop-color="#FB6700"/>
            <stop offset="0.911" stop-color="#F94A00"/>
            <stop offset="1" stop-color="#F83600"/>
        </linearGradient>
        <linearGradient id="paint2_linear_0_3" x1="1301.22" y1="89.502" x2="224.207" y2="1954.94" gradientUnits="userSpaceOnUse">
            <stop stop-color="white"/>
            <stop offset="0.276" stop-color="#FBFBFB"/>
            <stop offset="0.561" stop-color="#EEEEEE"/>
            <stop offset="0.85" stop-color="#DADADA"/>
            <stop offset="1" stop-color="#CCCCCC"/>
        </linearGradient>
    </defs>
</svg>
